<svg width="809" height="872" viewBox="0 0 809 872" fill="none" xmlns="http://www.w3.org/2000/svg">
<rect y="210.446" width="455.265" height="38.7671" rx="10" transform="rotate(-27.5323 0 210.446)" fill="#343434"/>
<rect x="49" y="661.779" width="455.304" height="38.7671" transform="rotate(-39.5459 49 661.779)" fill="#343434"/>
<rect width="666.518" height="38.7671" transform="matrix(-0.771115 -0.636696 -0.636696 0.771115 773.184 666.779)" fill="#343434"/>
<rect x="53.0859" y="661.874" width="408.49" height="38.7671" transform="rotate(25.2958 53.0859 661.874)" fill="#343434"/>
<rect width="409.735" height="38.7671" transform="matrix(-0.904114 0.427292 0.427292 0.904114 758.482 661.874)" fill="#343434"/>
<rect x="33.4971" y="697.423" width="484.698" height="38.7671" transform="rotate(-93.9418 33.4971 697.423)" fill="#343434"/>
<rect width="484.698" height="38.7671" transform="matrix(0.0687431 -0.997634 -0.997634 -0.0687431 775.428 697.422)" fill="#343434"/>
<rect width="455.265" height="38.7671" transform="matrix(-0.88675 -0.462248 -0.462248 0.88675 808.266 210.855)" fill="#343434"/>
</svg>
